<svg xmlns="http://www.w3.org/2000/svg" xmlns:xlink="http://www.w3.org/1999/xlink" viewBox="0 0 1619 1619"><defs><style>.cls-1,.cls-2,.cls-3,.cls-7{stroke:#999898;}.cls-1,.cls-10,.cls-11,.cls-12,.cls-13,.cls-14,.cls-15,.cls-2,.cls-3,.cls-4,.cls-5,.cls-6,.cls-7,.cls-8,.cls-9{stroke-miterlimit:10;}.cls-1{fill:url(#Degradado_sin_nombre_2);}.cls-2{fill:#bbbcbb;}.cls-3{fill:#cfd3cf;}.cls-4{fill:#919191;stroke:#3f3f3f;}.cls-5,.cls-6{fill:#fff;}.cls-5{stroke:#fff;}.cls-6{stroke:#fcfcfc;}.cls-7{fill:none;}.cls-8{fill:#2adbc6;}.cls-10,.cls-11,.cls-12,.cls-13,.cls-14,.cls-15,.cls-8,.cls-9{stroke:#000;}.cls-9{fill:#00b79c;}.cls-10{fill:#bf9f00;}.cls-11{fill:#e0bf00;}.cls-12{fill:#9b8100;}.cls-13{fill:#8e3191;}.cls-14{fill:#8f3691;}.cls-15{fill:#930793;}</style><radialGradient id="Degradado_sin_nombre_2" cx="809.5" cy="809.5" r="809" gradientUnits="userSpaceOnUse"><stop offset="0" stop-color="#fff"/><stop offset="0.01" stop-color="#fff"/><stop offset="1" stop-color="#fff"/></radialGradient></defs><title>Recurso 17</title><g id="Capa_2" data-name="Capa 2"><g id="Capa_1-2" data-name="Capa 1"><circle class="cls-1" cx="809.5" cy="809.5" r="809"/><polygon class="cls-2" points="834.02 1007.41 679.73 1070.86 671.02 1250.41 833.52 1177.07 834.02 1007.41"/><polygon class="cls-3" points="842.65 1006.91 987.51 1066.22 988.52 1240.91 842.65 1180.87 842.65 1006.91"/><polygon class="cls-4" points="832.71 1177.91 679.71 1248.78 832.71 1303.91 985.71 1248.78 832.71 1177.91"/><path class="cls-5" d="M827.76,1170a4.4,4.4,0,0,1-2,2l5.51,12.2L994,1252.07c2-.87,4.1-1.52,6.19-2.21v-7.93Z"/><path class="cls-5" d="M841.18,1170l-174.12,72.61v7c2.29,1,4.54,2.1,6.86,2.86L835.77,1185l6.16-13.63A5.11,5.11,0,0,1,841.18,1170Z"/><polyline class="cls-5" points="824.48 1186.91 824.48 1006.91 842.48 1006.91 842.48 1181.87"/><polyline class="cls-5" points="667.36 1249.91 667.36 1069.91 680.32 1069.91 680.32 1244.86"/><path class="cls-5" d="M999.94,1077.15c-.21-3.27.39-6.68,0-9.94L834.11,998.05a39.23,39.23,0,0,1-6.39,2.24l-.77.3,4,8.87,169.25,70.59C1000.1,1079.08,1000,1078.12,999.94,1077.15Z"/><path class="cls-6" d="M836.44,998.86c-.77-.25-1.53-.51-2.27-.81l-166.93,69.61v3c0,3.19.27,6.48.14,9.71l168.06-70.09,4.51-10A29.55,29.55,0,0,1,836.44,998.86Z"/><path class="cls-5" d="M1000.15,1236.83l-184.48,67.65,0,0c5.75,2,11.54,3.77,17.12,6.19l167.3-61.34C1000.1,1245.17,1000.05,1241,1000.15,1236.83Z"/><path class="cls-5" d="M667.12,1237.12v12.5l166,60.87.12,0c3.18-1.07,6.22-2.59,9.45-3.5l.21,0c2.09-1,4.17-2.05,6.28-3Z"/><line class="cls-7" x1="833.08" y1="997.41" x2="833.08" y2="1177.41"/><line class="cls-7" x1="834.02" y1="1178.41" x2="663.02" y2="1250.41"/><line class="cls-7" x1="833.02" y1="1178.41" x2="1004.02" y2="1250.41"/><polyline class="cls-5" points="986.84 1250.12 986.84 1070.12 999.8 1070.12 999.8 1245.07"/><polygon class="cls-2" points="995.68 945.3 841.39 1008.75 832.68 1188.3 995.18 1114.96 995.68 945.3"/><polygon class="cls-3" points="1004.31 944.8 1149.17 1004.11 1150.18 1178.8 1004.31 1118.76 1004.31 944.8"/><polygon class="cls-4" points="994.37 1115.8 841.37 1186.68 994.37 1241.8 1147.37 1186.68 994.37 1115.8"/><path class="cls-5" d="M989.42,1107.93a4.36,4.36,0,0,1-2,2l5.51,12.2L1155.61,1190c2-.88,4.1-1.53,6.19-2.22v-7.93Z"/><path class="cls-5" d="M1002.84,1107.93l-174.12,72.61v7c2.29,1,4.54,2.1,6.86,2.86l161.85-67.5,6.16-13.63A5,5,0,0,1,1002.84,1107.93Z"/><polyline class="cls-5" points="986.14 1124.8 986.14 944.8 1004.14 944.8 1004.14 1119.76"/><polyline class="cls-5" points="829.02 1187.8 829.02 1007.8 841.98 1007.8 841.98 1182.76"/><path class="cls-5" d="M1161.6,1015c-.21-3.27.39-6.68,0-9.94L995.77,935.94a39.23,39.23,0,0,1-6.39,2.24l-.77.3,4,8.88,169.25,70.58C1161.76,1017,1161.66,1016,1161.6,1015Z"/><path class="cls-6" d="M998.1,936.75c-.77-.24-1.53-.51-2.27-.81L828.9,1005.56v3c0,3.19.27,6.48.14,9.71L997.1,948.14l4.51-10A28,28,0,0,1,998.1,936.75Z"/><path class="cls-5" d="M1161.81,1174.73l-184.48,67.64,0,0c5.75,2,11.54,3.78,17.12,6.2l167.3-61.35C1161.76,1183.07,1161.71,1178.9,1161.81,1174.73Z"/><path class="cls-5" d="M828.78,1175v12.51l166,60.87.12-.05c3.18-1.07,6.22-2.59,9.45-3.49l.21,0c2.09-1,4.17-2,6.28-3Z"/><polyline class="cls-5" points="1148.5 1188.01 1148.5 1008.01 1161.46 1008.01 1161.46 1182.97"/><polygon class="cls-3" points="671.36 945.3 825.65 1008.75 834.36 1188.3 671.86 1114.96 671.36 945.3"/><polygon class="cls-2" points="662.73 944.8 517.87 1004.11 516.86 1178.8 662.73 1118.76 662.73 944.8"/><polygon class="cls-4" points="672.67 1115.8 825.67 1186.68 672.67 1241.8 519.67 1186.68 672.67 1115.8"/><path class="cls-5" d="M677.62,1107.93a4.36,4.36,0,0,0,2,2l-5.51,12.2L511.43,1190c-2-.88-4.1-1.53-6.19-2.22v-7.93Z"/><path class="cls-5" d="M664.2,1107.93l174.12,72.61v7c-2.29,1-4.54,2.1-6.86,2.86l-161.85-67.5-6.16-13.63A5,5,0,0,0,664.2,1107.93Z"/><polyline class="cls-5" points="680.9 1124.8 680.9 944.8 662.9 944.8 662.9 1119.76"/><polyline class="cls-5" points="838.02 1187.8 838.02 1007.8 825.06 1007.8 825.06 1182.76"/><path class="cls-5" d="M505.44,1015c.21-3.27-.39-6.68,0-9.94l165.83-69.16a39.23,39.23,0,0,0,6.39,2.24l.77.3-4,8.88-169.25,70.58C505.28,1017,505.38,1016,505.44,1015Z"/><path class="cls-6" d="M668.94,936.75c.77-.24,1.53-.51,2.27-.81l166.93,69.62v3c0,3.19-.27,6.48-.14,9.71L669.94,948.14l-4.51-10A28,28,0,0,0,668.94,936.75Z"/><path class="cls-5" d="M505.23,1174.73l184.48,67.64,0,0c-5.75,2-11.54,3.78-17.12,6.2l-167.3-61.35C505.28,1183.07,505.33,1178.9,505.23,1174.73Z"/><path class="cls-5" d="M838.26,1175v12.51l-166,60.87-.12-.05c-3.18-1.07-6.22-2.59-9.45-3.49l-.21,0c-2.09-1-4.17-2-6.28-3Z"/><line class="cls-7" x1="672.3" y1="935.3" x2="672.3" y2="1115.3"/><line class="cls-7" x1="671.36" y1="1116.3" x2="842.36" y2="1188.3"/><line class="cls-7" x1="672.36" y1="1116.3" x2="501.36" y2="1188.3"/><polyline class="cls-5" points="518.54 1188.01 518.54 1008.01 505.58 1008.01 505.58 1182.97"/><polygon class="cls-2" points="834.16 880.37 679.87 943.82 671.16 1123.37 833.66 1050.03 834.16 880.37"/><polygon class="cls-3" points="842.79 879.87 987.65 939.19 988.66 1113.87 842.79 1053.83 842.79 879.87"/><polygon class="cls-4" points="832.85 1050.87 679.85 1121.75 832.85 1176.87 985.85 1121.75 832.85 1050.87"/><path class="cls-5" d="M827.9,1043a4.4,4.4,0,0,1-2,2l5.51,12.19L994.09,1125c2-.88,4.1-1.52,6.19-2.21v-7.93Z"/><path class="cls-5" d="M841.32,1043,667.2,1115.62v7c2.29,1,4.54,2.1,6.86,2.86L835.91,1058l6.16-13.63A4.82,4.82,0,0,1,841.32,1043Z"/><polyline class="cls-5" points="824.62 1059.88 824.62 879.88 842.62 879.88 842.62 1054.83"/><polyline class="cls-5" points="667.5 1122.87 667.5 942.88 680.46 942.88 680.46 1117.83"/><path class="cls-5" d="M1000.08,950.11c-.21-3.26.39-6.68,0-9.93L834.25,871a39.23,39.23,0,0,1-6.39,2.24l-.77.29,4,8.88L1000.35,953C1000.24,952.05,1000.14,951.08,1000.08,950.11Z"/><path class="cls-6" d="M836.58,871.82c-.77-.24-1.53-.5-2.27-.81L667.38,940.63v3c0,3.2.27,6.48.14,9.72l168.06-70.09,4.51-10A26.51,26.51,0,0,1,836.58,871.82Z"/><path class="cls-5" d="M1000.29,1109.8l-184.48,67.64,0,0c5.75,2,11.54,3.77,17.12,6.19l167.3-61.34C1000.24,1118.14,1000.19,1114,1000.29,1109.8Z"/><path class="cls-5" d="M667.26,1110.08v12.51l166,60.87.12,0c3.18-1.07,6.22-2.58,9.45-3.49l.21-.05c2.09-1,4.17-2,6.28-3Z"/><polyline class="cls-5" points="986.98 1123.08 986.98 943.09 999.94 943.09 999.94 1118.04"/><polygon class="cls-3" points="500.5 530.57 654.79 594.01 663.5 773.57 501 700.23 500.5 530.57"/><polygon class="cls-2" points="491.87 530.07 347.01 589.38 346 764.07 491.87 704.03 491.87 530.07"/><polygon class="cls-4" points="501.81 701.07 654.81 771.94 501.81 827.07 348.81 771.94 501.81 701.07"/><path class="cls-5" d="M506.76,693.2a4.4,4.4,0,0,0,2,2l-5.51,12.2L340.57,775.23c-2-.87-4.1-1.52-6.19-2.21v-7.93Z"/><path class="cls-5" d="M493.34,693.2l174.12,72.61v7c-2.29,1-4.54,2.1-6.86,2.86L498.75,708.18l-6.16-13.63A5.11,5.11,0,0,0,493.34,693.2Z"/><polyline class="cls-5" points="510.04 710.07 510.04 530.07 492.04 530.07 492.04 705.03"/><polyline class="cls-5" points="667.16 773.07 667.16 593.07 654.2 593.07 654.2 768.02"/><path class="cls-5" d="M334.58,600.31c.21-3.27-.39-6.68,0-9.94l165.83-69.16a39.23,39.23,0,0,0,6.39,2.24l.77.3-4,8.87L334.31,603.21C334.42,602.24,334.52,601.28,334.58,600.31Z"/><path class="cls-6" d="M498.08,522c.77-.25,1.53-.51,2.27-.81l166.93,69.61v3c0,3.19-.27,6.48-.14,9.71L499.08,533.4l-4.51-10A29.55,29.55,0,0,0,498.08,522Z"/><path class="cls-5" d="M334.37,760l184.48,67.65,0,0c-5.75,2-11.54,3.77-17.12,6.19l-167.3-61.34C334.42,768.33,334.47,764.16,334.37,760Z"/><path class="cls-5" d="M667.4,760.28v12.5l-166,60.87-.12,0c-3.18-1.07-6.22-2.59-9.45-3.5l-.21,0c-2.09-1-4.17-2.05-6.28-3Z"/><polyline class="cls-5" points="347.68 773.28 347.68 593.28 334.72 593.28 334.72 768.23"/><polygon class="cls-2" points="987.02 467.43 832.73 530.88 824.02 710.43 986.52 637.09 987.02 467.43"/><polygon class="cls-3" points="995.65 466.93 1140.51 526.24 1141.52 700.93 995.65 640.89 995.65 466.93"/><polygon class="cls-4" points="985.71 637.93 832.71 708.8 985.71 763.93 1138.71 708.8 985.71 637.93"/><path class="cls-5" d="M980.76,630.06a4.4,4.4,0,0,1-2,2l5.51,12.2L1147,712.09c2-.87,4.1-1.52,6.19-2.21V702Z"/><path class="cls-5" d="M994.18,630.06,820.06,702.67v7c2.29,1,4.54,2.1,6.86,2.86L988.77,645l6.16-13.63A5.11,5.11,0,0,1,994.18,630.06Z"/><polyline class="cls-5" points="977.48 646.93 977.48 466.93 995.48 466.93 995.48 641.89"/><polyline class="cls-5" points="820.36 709.93 820.36 529.93 833.32 529.93 833.32 704.88"/><path class="cls-5" d="M1152.94,537.17c-.21-3.27.39-6.68,0-9.94L987.11,458.07a39.23,39.23,0,0,1-6.39,2.24l-.77.3,4,8.87,169.25,70.59C1153.1,539.1,1153,538.14,1152.94,537.17Z"/><path class="cls-6" d="M989.44,458.88c-.77-.25-1.53-.51-2.27-.81L820.24,527.68v3c0,3.19.27,6.48.14,9.71l168.06-70.09,4.51-10A29.55,29.55,0,0,1,989.44,458.88Z"/><path class="cls-5" d="M1153.15,696.85,968.67,764.5l0,0c5.75,2,11.54,3.77,17.12,6.19l167.3-61.34C1153.1,705.19,1153.05,701,1153.15,696.85Z"/><path class="cls-5" d="M820.12,697.14v12.5l166,60.87.12,0c3.18-1.07,6.22-2.59,9.45-3.5l.21,0c2.09-1,4.17-2,6.28-3Z"/><polyline class="cls-5" points="1139.84 710.14 1139.84 530.14 1152.8 530.14 1152.8 705.09"/><polygon class="cls-8" points="825.5 286.5 671.21 349.95 662.5 529.5 825 456.16 825.5 286.5"/><polygon class="cls-9" points="834.13 286 978.99 345.31 980 520 834.13 459.96 834.13 286"/><polygon class="cls-9" points="824.19 457 671.19 527.88 824.19 583 977.19 527.88 824.19 457"/><path class="cls-5" d="M819.24,449.13a4.36,4.36,0,0,1-2,2l5.51,12.2,162.66,67.84c2-.88,4.1-1.53,6.19-2.22V521Z"/><path class="cls-5" d="M832.66,449.13,658.54,521.74v7c2.29,1,4.54,2.1,6.86,2.86l161.85-67.5,6.16-13.63A5,5,0,0,1,832.66,449.13Z"/><polyline class="cls-5" points="815.96 466 815.96 286 833.96 286 833.96 460.96"/><polyline class="cls-5" points="658.84 529 658.84 349 671.8 349 671.8 523.96"/><path class="cls-5" d="M991.42,356.24c-.21-3.27.39-6.68,0-9.94L825.59,277.14a39.23,39.23,0,0,1-6.39,2.24l-.77.3,4,8.87,169.25,70.59C991.58,358.18,991.48,357.21,991.42,356.24Z"/><path class="cls-6" d="M827.92,278c-.77-.24-1.53-.51-2.27-.81L658.72,346.76v2.95c0,3.19.27,6.48.14,9.71l168.06-70.08,4.51-10A28,28,0,0,1,827.92,278Z"/><path class="cls-5" d="M991.63,515.93,807.15,583.57l0,0c5.75,2,11.54,3.77,17.12,6.2l167.3-61.35C991.58,524.27,991.53,520.1,991.63,515.93Z"/><path class="cls-5" d="M658.6,516.21v12.51l166,60.87.12-.05c3.18-1.07,6.22-2.59,9.45-3.49l.21,0c2.09-1,4.17-2,6.28-3Z"/><polyline class="cls-5" points="978.32 529.21 978.32 349.21 991.28 349.21 991.28 524.17"/><polygon class="cls-2" points="1148.52 710.44 994.23 773.89 985.52 953.44 1148.02 880.1 1148.52 710.44"/><polygon class="cls-3" points="1157.15 709.94 1302.01 769.25 1303.02 943.94 1157.15 883.9 1157.15 709.94"/><polygon class="cls-4" points="1147.21 880.94 994.21 951.82 1147.21 1006.94 1300.21 951.82 1147.21 880.94"/><path class="cls-5" d="M1142.26,873.07a4.36,4.36,0,0,1-2,2l5.51,12.2,162.66,67.84c2-.88,4.1-1.53,6.19-2.22V945Z"/><path class="cls-5" d="M1155.68,873.07,981.56,945.68v7c2.29,1,4.54,2.1,6.86,2.86l161.85-67.5,6.16-13.63A5,5,0,0,1,1155.68,873.07Z"/><polyline class="cls-5" points="1138.98 889.94 1138.98 709.94 1156.98 709.94 1156.98 884.9"/><polyline class="cls-5" points="981.86 952.94 981.86 772.94 994.82 772.94 994.82 947.9"/><path class="cls-5" d="M1314.44,780.18c-.21-3.27.39-6.68,0-9.94l-165.83-69.16a39.23,39.23,0,0,1-6.39,2.24l-.77.3,4,8.88,169.25,70.58C1314.6,782.12,1314.5,781.15,1314.44,780.18Z"/><path class="cls-6" d="M1150.94,701.89c-.77-.24-1.53-.51-2.27-.81L981.74,770.7v2.95c0,3.19.27,6.48.14,9.71l168.06-70.08,4.51-10A28,28,0,0,1,1150.94,701.89Z"/><path class="cls-5" d="M1314.65,939.87l-184.48,67.64,0,0c5.75,2,11.54,3.78,17.12,6.2l167.3-61.35C1314.6,948.21,1314.55,944,1314.65,939.87Z"/><path class="cls-5" d="M981.62,940.15v12.51l166,60.87.12,0c3.18-1.07,6.22-2.59,9.45-3.49l.21,0c2.09-1,4.17-2.05,6.28-3Z"/><polyline class="cls-5" points="1301.34 953.15 1301.34 773.15 1314.3 773.15 1314.3 948.11"/><polygon class="cls-10" points="320.8 729.44 475.09 792.89 483.8 972.44 321.3 899.1 320.8 729.44"/><polygon class="cls-11" points="312.17 728.94 167.31 788.25 166.3 962.94 312.17 902.9 312.17 728.94"/><polygon class="cls-12" points="322.11 899.94 475.11 970.82 322.11 1025.94 169.11 970.82 322.11 899.94"/><path class="cls-5" d="M327.06,892.07a4.36,4.36,0,0,0,2,2l-5.51,12.2L160.87,974.11c-2-.88-4.1-1.53-6.19-2.22V964Z"/><path class="cls-5" d="M313.64,892.07l174.12,72.61v7c-2.29,1-4.54,2.1-6.86,2.86l-161.85-67.5-6.16-13.63A5,5,0,0,0,313.64,892.07Z"/><polyline class="cls-5" points="330.34 908.94 330.34 728.94 312.34 728.94 312.34 903.9"/><polyline class="cls-5" points="487.46 971.94 487.46 791.94 474.5 791.94 474.5 966.9"/><path class="cls-5" d="M154.88,799.18c.21-3.27-.39-6.68,0-9.94l165.83-69.16a39.23,39.23,0,0,0,6.39,2.24l.77.3-4,8.88L154.61,802.08C154.72,801.12,154.82,800.15,154.88,799.18Z"/><path class="cls-6" d="M318.38,720.89c.77-.24,1.53-.51,2.27-.81L487.58,789.7v2.95c0,3.19-.27,6.48-.14,9.71L319.38,732.28l-4.51-10A28,28,0,0,0,318.38,720.89Z"/><path class="cls-5" d="M154.67,958.87l184.48,67.64,0,0c-5.75,2-11.54,3.78-17.12,6.2l-167.3-61.35C154.72,967.21,154.77,963,154.67,958.87Z"/><path class="cls-5" d="M487.7,959.15v12.51l-166,60.87-.12,0c-3.18-1.07-6.22-2.59-9.45-3.49l-.21,0c-2.09-1-4.17-2-6.28-3Z"/><polyline class="cls-5" points="167.98 972.15 167.98 792.15 155.02 792.15 155.02 967.11"/><polygon class="cls-3" points="662 647.3 816.29 710.75 825 890.3 662.5 816.96 662 647.3"/><polygon class="cls-2" points="653.37 646.8 508.51 706.11 507.5 880.8 653.37 820.76 653.37 646.8"/><polygon class="cls-4" points="663.31 817.8 816.31 888.68 663.31 943.8 510.31 888.68 663.31 817.8"/><path class="cls-5" d="M668.26,809.93a4.36,4.36,0,0,0,2,2l-5.51,12.2L502.07,892c-2-.88-4.1-1.53-6.19-2.22v-7.93Z"/><path class="cls-5" d="M654.84,809.93,829,882.54v7c-2.29,1-4.54,2.1-6.86,2.86l-161.85-67.5-6.16-13.63A5,5,0,0,0,654.84,809.93Z"/><polyline class="cls-5" points="671.54 826.8 671.54 646.8 653.54 646.8 653.54 821.76"/><polyline class="cls-5" points="828.66 889.8 828.66 709.8 815.7 709.8 815.7 884.76"/><path class="cls-5" d="M496.08,717c.21-3.27-.39-6.68,0-9.94l165.83-69.16a39.23,39.23,0,0,0,6.39,2.24l.77.3-4,8.88L495.81,719.94C495.92,719,496,718,496.08,717Z"/><path class="cls-6" d="M659.58,638.75c.77-.24,1.53-.51,2.27-.81l166.93,69.62v3c0,3.19-.27,6.48-.14,9.71L660.58,650.14l-4.51-10A28,28,0,0,0,659.58,638.75Z"/><path class="cls-5" d="M495.87,876.73l184.48,67.64,0,0c-5.75,2-11.54,3.78-17.12,6.2l-167.3-61.35C495.92,885.07,496,880.9,495.87,876.73Z"/><path class="cls-5" d="M828.9,877v12.51l-166,60.87-.12,0c-3.18-1.07-6.22-2.59-9.45-3.49l-.21-.05c-2.09-1-4.17-2-6.28-3Z"/><polyline class="cls-5" points="509.18 890.01 509.18 710.01 496.22 710.01 496.22 884.97"/><polygon class="cls-2" points="824.8 582.37 670.51 645.82 661.8 825.37 824.3 752.03 824.8 582.37"/><polygon class="cls-3" points="833.43 581.87 978.29 641.19 979.3 815.87 833.43 755.83 833.43 581.87"/><polygon class="cls-4" points="823.49 752.87 670.49 823.75 823.49 878.87 976.49 823.75 823.49 752.87"/><path class="cls-5" d="M818.54,745a4.4,4.4,0,0,1-2,2l5.51,12.19L984.73,827c2-.88,4.1-1.52,6.19-2.21V816.9Z"/><path class="cls-5" d="M832,745,657.84,817.62v7c2.29,1,4.54,2.1,6.86,2.86L826.55,760l6.16-13.63A4.82,4.82,0,0,1,832,745Z"/><polyline class="cls-5" points="815.26 761.88 815.26 581.88 833.26 581.88 833.26 756.83"/><polyline class="cls-5" points="658.14 824.87 658.14 644.88 671.1 644.88 671.1 819.83"/><path class="cls-5" d="M990.72,652.11c-.21-3.26.39-6.68,0-9.93L824.89,573a39.23,39.23,0,0,1-6.39,2.24l-.77.29,4,8.88L991,655C990.88,654.05,990.78,653.08,990.72,652.11Z"/><path class="cls-6" d="M827.22,573.82c-.77-.24-1.53-.5-2.27-.81L658,642.63v3c0,3.2.27,6.48.14,9.72l168.06-70.09,4.51-10A26.51,26.51,0,0,1,827.22,573.82Z"/><path class="cls-5" d="M990.93,811.8,806.45,879.44l0,0c5.75,1.95,11.54,3.77,17.12,6.19l167.3-61.34C990.88,820.14,990.83,816,990.93,811.8Z"/><path class="cls-5" d="M657.9,812.08v12.51l166,60.87.12-.05c3.18-1.07,6.22-2.58,9.45-3.49l.21,0c2.09-1,4.17-2,6.28-3Z"/><polyline class="cls-5" points="977.62 825.08 977.62 645.09 990.58 645.09 990.58 820.04"/><polygon class="cls-13" points="1275.52 925.44 1121.23 988.89 1112.52 1168.44 1275.02 1095.1 1275.52 925.44"/><polygon class="cls-14" points="1284.15 924.94 1429.01 984.25 1430.02 1158.94 1284.15 1098.9 1284.15 924.94"/><polygon class="cls-15" points="1274.21 1095.94 1121.21 1166.82 1274.21 1221.94 1427.21 1166.82 1274.21 1095.94"/><path class="cls-5" d="M1269.26,1088.07a4.36,4.36,0,0,1-2,2l5.51,12.2,162.66,67.84c2-.88,4.1-1.53,6.19-2.22V1160Z"/><path class="cls-5" d="M1282.68,1088.07l-174.12,72.61v7c2.29,1,4.54,2.1,6.86,2.86l161.85-67.5,6.16-13.63A5,5,0,0,1,1282.68,1088.07Z"/><polyline class="cls-5" points="1265.98 1104.94 1265.98 924.94 1283.98 924.94 1283.98 1099.9"/><polyline class="cls-5" points="1108.86 1167.94 1108.86 987.94 1121.82 987.94 1121.82 1162.9"/><path class="cls-5" d="M1441.44,995.18c-.21-3.27.39-6.68,0-9.94l-165.83-69.16a39.23,39.23,0,0,1-6.39,2.24l-.77.3,4,8.88,169.25,70.58C1441.6,997.12,1441.5,996.15,1441.44,995.18Z"/><path class="cls-6" d="M1277.94,916.89c-.77-.24-1.53-.51-2.27-.81L1108.74,985.7v2.95c0,3.19.27,6.48.14,9.71l168.06-70.08,4.51-10A28,28,0,0,1,1277.94,916.89Z"/><path class="cls-5" d="M1441.65,1154.87l-184.48,67.64,0,0c5.75,2,11.54,3.78,17.12,6.2l167.3-61.35C1441.6,1163.21,1441.55,1159,1441.65,1154.87Z"/><path class="cls-5" d="M1108.62,1155.15v12.51l166,60.87.12,0c3.18-1.07,6.22-2.59,9.45-3.49l.21,0c2.09-1,4.17-2,6.28-3Z"/><polyline class="cls-5" points="1428.34 1168.15 1428.34 988.15 1441.3 988.15 1441.3 1163.11"/><polygon class="cls-3" points="500.8 882.44 655.09 945.89 663.8 1125.44 501.3 1052.1 500.8 882.44"/><polygon class="cls-2" points="492.17 881.94 347.31 941.25 346.3 1115.94 492.17 1055.9 492.17 881.94"/><polygon class="cls-4" points="502.11 1052.94 655.11 1123.82 502.11 1178.94 349.11 1123.82 502.11 1052.94"/><path class="cls-5" d="M507.06,1045.07a4.36,4.36,0,0,0,2,2l-5.51,12.2-162.66,67.84c-2-.88-4.1-1.53-6.19-2.22V1117Z"/><path class="cls-5" d="M493.64,1045.07l174.12,72.61v7c-2.29,1-4.54,2.1-6.86,2.86l-161.85-67.5-6.16-13.63A5,5,0,0,0,493.64,1045.07Z"/><polyline class="cls-5" points="510.34 1061.94 510.34 881.94 492.34 881.94 492.34 1056.9"/><polyline class="cls-5" points="667.46 1124.94 667.46 944.94 654.5 944.94 654.5 1119.9"/><path class="cls-5" d="M334.88,952.18c.21-3.27-.39-6.68,0-9.94l165.83-69.16a39.23,39.23,0,0,0,6.39,2.24l.77.3-4,8.88L334.61,955.08C334.72,954.12,334.82,953.15,334.88,952.18Z"/><path class="cls-6" d="M498.38,873.89c.77-.24,1.53-.51,2.27-.81L667.58,942.7v2.95c0,3.19-.27,6.48-.14,9.71L499.38,885.28l-4.51-10A28,28,0,0,0,498.38,873.89Z"/><path class="cls-5" d="M334.67,1111.87l184.48,67.64,0,0c-5.75,2-11.54,3.78-17.12,6.2l-167.3-61.35C334.72,1120.21,334.77,1116,334.67,1111.87Z"/><path class="cls-5" d="M667.7,1112.15v12.51l-166,60.87-.12,0c-3.18-1.07-6.22-2.59-9.45-3.49l-.21,0c-2.09-1-4.17-2-6.28-3Z"/><polyline class="cls-5" points="347.98 1125.15 347.98 945.15 335.02 945.15 335.02 1120.11"/><polygon class="cls-2" points="987.32 819.3 833.03 882.75 824.32 1062.3 986.82 988.96 987.32 819.3"/><polygon class="cls-3" points="995.95 818.8 1140.81 878.11 1141.82 1052.8 995.95 992.76 995.95 818.8"/><polygon class="cls-4" points="986.01 989.8 833.01 1060.68 986.01 1115.8 1139.01 1060.68 986.01 989.8"/><path class="cls-5" d="M981.06,981.93a4.36,4.36,0,0,1-2,2l5.51,12.2L1147.25,1064c2-.88,4.1-1.53,6.19-2.22v-7.93Z"/><path class="cls-5" d="M994.48,981.93l-174.12,72.61v7c2.29,1,4.54,2.1,6.86,2.86l161.85-67.5,6.16-13.63A5,5,0,0,1,994.48,981.93Z"/><polyline class="cls-5" points="977.78 998.8 977.78 818.8 995.78 818.8 995.78 993.76"/><polyline class="cls-5" points="820.66 1061.8 820.66 881.8 833.62 881.8 833.62 1056.76"/><path class="cls-5" d="M1153.24,889c-.21-3.27.39-6.68,0-9.94L987.41,809.94a39.23,39.23,0,0,1-6.39,2.24l-.77.3,4,8.88,169.25,70.58C1153.4,891,1153.3,890,1153.24,889Z"/><path class="cls-6" d="M989.74,810.75c-.77-.24-1.53-.51-2.27-.81L820.54,879.56v3c0,3.19.27,6.48.14,9.71l168.06-70.08,4.51-10A28,28,0,0,1,989.74,810.75Z"/><path class="cls-5" d="M1153.45,1048.73,969,1116.37l0,0c5.75,2,11.54,3.78,17.12,6.2l167.3-61.35C1153.4,1057.07,1153.35,1052.9,1153.45,1048.73Z"/><path class="cls-5" d="M820.42,1049v12.51l166,60.87.12-.05c3.18-1.07,6.22-2.59,9.45-3.49l.21,0c2.09-1,4.17-2,6.28-3Z"/><polyline class="cls-5" points="1140.14 1062.01 1140.14 882.01 1153.1 882.01 1153.1 1056.97"/><polygon class="cls-2" points="825.8 754.37 671.51 817.82 662.8 997.37 825.3 924.03 825.8 754.37"/><polygon class="cls-3" points="834.43 753.87 979.29 813.19 980.3 987.87 834.43 927.83 834.43 753.87"/><polygon class="cls-4" points="824.49 924.87 671.49 995.75 824.49 1050.87 977.49 995.75 824.49 924.87"/><path class="cls-5" d="M819.54,917a4.4,4.4,0,0,1-2,2l5.51,12.19L985.73,999c2-.88,4.1-1.52,6.19-2.21V988.9Z"/><path class="cls-5" d="M833,917,658.84,989.62v7c2.29,1,4.54,2.1,6.86,2.86L827.55,932l6.16-13.63A4.82,4.82,0,0,1,833,917Z"/><polyline class="cls-5" points="816.26 933.88 816.26 753.88 834.26 753.88 834.26 928.83"/><polyline class="cls-5" points="659.14 996.87 659.14 816.88 672.1 816.88 672.1 991.83"/><path class="cls-5" d="M991.72,824.11c-.21-3.26.39-6.68,0-9.93L825.89,745a39.23,39.23,0,0,1-6.39,2.24l-.77.29,4,8.88L992,827C991.88,826.05,991.78,825.08,991.72,824.11Z"/><path class="cls-6" d="M828.22,745.82c-.77-.24-1.53-.5-2.27-.81L659,814.63v3c0,3.2.27,6.48.14,9.72l168.06-70.09,4.51-10A26.51,26.51,0,0,1,828.22,745.82Z"/><path class="cls-5" d="M991.93,983.8l-184.48,67.64,0,0c5.75,2,11.54,3.77,17.12,6.19l167.3-61.34C991.88,992.14,991.83,988,991.93,983.8Z"/><path class="cls-5" d="M658.9,984.08v12.51l166,60.87.12,0c3.18-1.07,6.22-2.58,9.45-3.49l.21-.05c2.09-1,4.17-2,6.28-3Z"/><polyline class="cls-5" points="978.62 997.08 978.62 817.09 991.58 817.09 991.58 992.04"/></g></g></svg>